<?xml version="1.0" encoding="utf-8"?>
<!-- Generator: Adobe Illustrator 23.0.1, SVG Export Plug-In . SVG Version: 6.00 Build 0)  -->
<svg version="1.0" id="Layer_1" xmlns="http://www.w3.org/2000/svg" xmlns:xlink="http://www.w3.org/1999/xlink" x="0px" y="0px"
	 viewBox="0 0 585 203" enable-background="new 0 0 585 203" xml:space="preserve">
<polygon fill="#7BAFD4" points="150.77,9.25 124.75,61.92 218.1,37.18 "/>
<polygon fill="#003DA5" points="9.04,88.61 62.84,187.21 150.77,9.25 "/>
<path d="M568.09,175.38c1.46,0,2.42,0.67,2.87,2l-6.2,2.1v-0.29c0-1.16,0.3-2.09,0.9-2.78
	C566.27,175.73,567.08,175.38,568.09,175.38 M568.44,183.2c-1.18,0-2.12-0.4-2.81-1.19l10.33-3.29c-0.39-2.2-1.23-3.89-2.53-5.07
	c-1.3-1.18-2.97-1.78-4.99-1.78c-1.49,0-2.85,0.34-4.1,1.02c-1.25,0.68-2.23,1.6-2.95,2.76c-0.72,1.16-1.08,2.43-1.08,3.81
	c0,1.48,0.31,2.8,0.94,3.95c0.62,1.15,1.54,2.05,2.76,2.68c1.21,0.64,2.66,0.95,4.34,0.95c0.77,0,1.59-0.13,2.45-0.39
	c0.86-0.26,1.68-0.6,2.45-1.03l-2-3.36C570.28,182.88,569.35,183.2,568.44,183.2 M557.92,185.39l-2.26-2.84
	c-0.65,0.54-1.46,0.81-2.45,0.81c-1.14,0-2.06-0.36-2.78-1.08c-0.71-0.72-1.07-1.62-1.07-2.7s0.33-1.97,0.99-2.68
	c0.66-0.71,1.46-1.06,2.4-1.06c1.14,0,2.17,0.37,3.1,1.1l2.2-2.91c-1.46-1.25-3.37-1.87-5.72-1.87c-1.31,0-2.54,0.3-3.68,0.89
	c-1.14,0.59-2.06,1.45-2.76,2.58c-0.7,1.13-1.05,2.45-1.05,3.96c0,2.32,0.72,4.15,2.15,5.47c1.43,1.32,3.37,1.98,5.83,1.98
	c0.9,0,1.82-0.15,2.76-0.45C556.51,186.28,557.29,185.89,557.92,185.39 M536.68,167.54c0,0.64,0.25,1.18,0.76,1.61
	c0.5,0.43,1.08,0.65,1.73,0.65c0.62,0,1.18-0.21,1.68-0.65c0.5-0.43,0.74-0.97,0.74-1.61c0-0.65-0.25-1.19-0.74-1.63
	c-0.5-0.44-1.06-0.66-1.68-0.66c-0.65,0-1.22,0.22-1.73,0.66C536.93,166.35,536.68,166.89,536.68,167.54 M536.77,186.65h4.52v-14.11
	h-4.52V186.65z M529.09,172.54l-2.91,6.72l-3.29-6.72h-5.36l8.46,14.4h0.13l8.01-14.4H529.09z M510.72,175.77l-0.36-3.23h-4.07
	v14.11h4.49v-5.52c0-0.77,0.18-1.53,0.55-2.28c0.37-0.74,0.89-1.35,1.58-1.82c0.69-0.47,1.48-0.71,2.39-0.71
	c0.24,0,0.42,0.01,0.55,0.03l0.23-4.52c-0.41,0-0.97,0.17-1.68,0.5c-0.71,0.33-1.4,0.8-2.08,1.4
	C511.64,174.34,511.11,175.02,510.72,175.77 M495.13,175.38c1.46,0,2.42,0.67,2.87,2l-6.2,2.1v-0.29c0-1.16,0.3-2.09,0.91-2.78
	C493.31,175.73,494.11,175.38,495.13,175.38 M495.48,183.2c-1.18,0-2.12-0.4-2.81-1.19l10.33-3.29c-0.39-2.2-1.23-3.89-2.53-5.07
	c-1.3-1.18-2.96-1.78-4.99-1.78c-1.48,0-2.85,0.34-4.1,1.02c-1.25,0.68-2.23,1.6-2.95,2.76c-0.72,1.16-1.08,2.43-1.08,3.81
	c0,1.48,0.31,2.8,0.94,3.95c0.62,1.15,1.54,2.05,2.76,2.68c1.22,0.64,2.66,0.95,4.34,0.95c0.77,0,1.59-0.13,2.45-0.39
	c0.86-0.26,1.68-0.6,2.45-1.03l-2-3.36C497.32,182.88,496.38,183.2,495.48,183.2 M483.05,168.64l1.78-3.58
	c-1.12-0.73-2.27-1.3-3.45-1.69c-1.18-0.4-2.66-0.6-4.42-0.6c-2.24,0.11-4.03,0.79-5.38,2.03c-1.35,1.25-2.02,2.9-2.02,4.94
	c0,1.4,0.33,2.56,0.98,3.49c0.66,0.92,1.44,1.64,2.34,2.13c0.91,0.5,2.03,1.01,3.39,1.55c2.3,0.91,3.45,1.97,3.45,3.2
	c0,0.95-0.37,1.63-1.1,2.05c-0.73,0.42-1.59,0.63-2.58,0.63c-0.84,0-1.79-0.19-2.84-0.58c-1.05-0.39-1.99-0.88-2.81-1.49l-2.07,3.65
	c1.21,0.86,2.51,1.5,3.91,1.92c1.4,0.42,2.81,0.63,4.23,0.63c1.7,0,3.16-0.31,4.39-0.92c1.23-0.61,2.16-1.44,2.79-2.49
	c0.64-1.04,0.95-2.18,0.95-3.4c0-1.42-0.26-2.59-0.79-3.52c-0.53-0.92-1.19-1.65-1.99-2.18c-0.8-0.53-1.75-1-2.87-1.4
	c-1.38-0.52-2.48-1.06-3.31-1.63c-0.83-0.57-1.24-1.23-1.24-1.99c0-0.82,0.29-1.43,0.86-1.84c0.57-0.41,1.37-0.61,2.4-0.61
	C479.19,166.93,480.99,167.5,483.05,168.64 M449.77,171.86c-1.25,0-2.33,0.26-3.24,0.77c-0.92,0.52-1.63,1.24-2.15,2.16l-0.32-2.26
	h-4.1v14.11h4.52v-5.75c0-1.53,0.31-2.78,0.94-3.74c0.62-0.97,1.45-1.45,2.49-1.45c1.31,0,2,0.69,2.07,2.07v8.88h4.52v-10.56
	c-0.02-1.23-0.48-2.24-1.37-3.04C452.22,172.26,451.1,171.86,449.77,171.86 M424.97,179.45c0-1.12,0.32-2.05,0.97-2.79
	c0.65-0.74,1.46-1.11,2.45-1.11c1.03,0,1.87,0.37,2.5,1.1c0.64,0.73,0.95,1.67,0.95,2.81c0,1.14-0.32,2.08-0.95,2.81
	c-0.63,0.73-1.47,1.1-2.5,1.1c-0.99,0-1.81-0.37-2.45-1.11S424.97,180.57,424.97,179.45 M420.42,179.42c0,1.57,0.34,2.93,1.02,4.07
	c0.68,1.14,1.63,2.02,2.84,2.63c1.22,0.61,2.61,0.92,4.18,0.92c1.61,0,3.02-0.33,4.21-0.98c1.19-0.66,2.11-1.57,2.76-2.73
	c0.64-1.16,0.97-2.46,0.97-3.91c0-1.44-0.32-2.73-0.97-3.87c-0.65-1.14-1.57-2.04-2.76-2.7c-1.19-0.66-2.58-0.99-4.15-0.99
	s-2.98,0.33-4.21,0.99c-1.24,0.66-2.2,1.56-2.87,2.7C420.76,176.69,420.42,177.98,420.42,179.42 M412.25,167.54
	c0,0.64,0.25,1.18,0.76,1.61c0.5,0.43,1.08,0.65,1.73,0.65c0.62,0,1.18-0.21,1.68-0.65c0.5-0.43,0.74-0.97,0.74-1.61
	c0-0.65-0.25-1.19-0.74-1.63c-0.49-0.44-1.05-0.66-1.68-0.66c-0.65,0-1.22,0.22-1.73,0.66
	C412.51,166.35,412.25,166.89,412.25,167.54 M412.35,186.65h4.52v-14.11h-4.52V186.65z M400.96,166.34v6.13h-2.2V176h2.2v10.65h4.52
	V176h3.42v-3.52h-3.42v-6.13H400.96z M387.04,183.36c-0.67,0-1.29-0.17-1.86-0.52c-0.57-0.34-1.03-0.82-1.37-1.44
	s-0.52-1.29-0.52-2.02c0-1.12,0.35-2.05,1.05-2.78c0.7-0.73,1.54-1.1,2.53-1.1c0.86,0,1.61,0.2,2.24,0.61
	c0.64,0.41,1.08,0.96,1.34,1.65v3.45C389.75,182.65,388.61,183.36,387.04,183.36 M390.79,172.54l-0.29,1.45
	c-0.56-0.69-1.21-1.22-1.94-1.6c-0.73-0.38-1.72-0.57-2.97-0.57c-1.21,0-2.33,0.32-3.39,0.97c-1.06,0.65-1.9,1.56-2.53,2.73
	c-0.64,1.17-0.95,2.53-0.95,4.08c0,2.45,0.65,4.31,1.95,5.55c1.3,1.25,3,1.87,5.08,1.87c1.79,0,3.36-0.71,4.71-2.13v1.74h4.52
	v-14.11H390.79z M371.48,175.77l-0.35-3.23h-4.07v14.11h4.49v-5.52c0-0.77,0.18-1.53,0.55-2.28c0.37-0.74,0.89-1.35,1.58-1.82
	c0.69-0.47,1.49-0.71,2.39-0.71c0.24,0,0.42,0.01,0.55,0.03l0.23-4.52c-0.41,0-0.97,0.17-1.68,0.5c-0.71,0.33-1.4,0.8-2.08,1.4
	C372.4,174.34,371.87,175.02,371.48,175.77 M353.98,183.36c-1.1,0-2.02-0.38-2.78-1.15c-0.75-0.76-1.13-1.71-1.13-2.82
	c0-1.12,0.38-2.05,1.13-2.78c0.75-0.73,1.68-1.1,2.78-1.1c0.9,0,1.71,0.2,2.41,0.61c0.7,0.41,1.2,0.96,1.5,1.65v3.45
	C357.09,182.65,355.79,183.36,353.98,183.36 M358.24,172.54l-0.35,1.1c-0.47-0.54-1.16-0.97-2.07-1.31c-0.9-0.33-1.94-0.5-3.1-0.5
	c-1.23,0-2.39,0.33-3.5,1c-1.11,0.67-2,1.59-2.68,2.78c-0.68,1.18-1.02,2.48-1.02,3.91c0,1.4,0.32,2.68,0.97,3.83
	c0.65,1.15,1.51,2.06,2.6,2.71c1.09,0.66,2.26,0.98,3.54,0.98c1.29,0,2.38-0.23,3.28-0.68c0.89-0.45,1.56-1.04,1.99-1.78v2
	c0,1.01-0.39,1.8-1.16,2.37c-0.77,0.57-1.73,0.86-2.87,0.86c-0.97,0-1.77-0.17-2.41-0.52s-1.27-0.82-1.92-1.42l-2.65,3.1
	c0.73,0.6,1.36,1.08,1.89,1.42c0.53,0.34,1.23,0.66,2.1,0.94c0.87,0.28,1.89,0.42,3.05,0.42c1.53,0,2.94-0.31,4.25-0.92
	c1.3-0.61,2.33-1.46,3.1-2.55c0.76-1.09,1.15-2.3,1.15-3.63v-14.11H358.24z M337.36,167.54c0,0.64,0.25,1.18,0.76,1.61
	c0.51,0.43,1.08,0.65,1.73,0.65c0.62,0,1.18-0.21,1.68-0.65c0.49-0.43,0.74-0.97,0.74-1.61c0-0.65-0.25-1.19-0.74-1.63
	c-0.5-0.44-1.06-0.66-1.68-0.66c-0.65,0-1.22,0.22-1.73,0.66C337.61,166.35,337.36,166.89,337.36,167.54 M337.45,186.65h4.52v-14.11
	h-4.52V186.65z M328.19,171.83c-0.88,0-1.74,0.25-2.57,0.74c-0.83,0.49-1.54,1.16-2.15,2c-0.28-0.9-0.79-1.59-1.53-2.05
	c-0.74-0.46-1.68-0.69-2.82-0.69c-2.26,0-3.96,0.98-5.1,2.94l-0.32-2.23h-4.1v14.11h4.52v-5.84c0-1.33,0.29-2.51,0.87-3.54
	c0.58-1.02,1.38-1.53,2.39-1.53c0.58,0.04,0.98,0.24,1.19,0.6c0.22,0.35,0.34,0.89,0.39,1.6v8.72h4.52v-5.78
	c0-1.38,0.3-2.58,0.89-3.6c0.59-1.02,1.42-1.53,2.47-1.53c0.56,0.04,0.94,0.24,1.13,0.6c0.19,0.35,0.31,0.89,0.35,1.6v8.72h4.49
	v-10.59c-0.04-1.27-0.48-2.29-1.31-3.07C330.67,172.22,329.56,171.83,328.19,171.83 M300.33,171.83c-0.88,0-1.74,0.25-2.57,0.74
	c-0.83,0.49-1.54,1.16-2.15,2c-0.28-0.9-0.79-1.59-1.53-2.05c-0.74-0.46-1.68-0.69-2.82-0.69c-2.26,0-3.96,0.98-5.1,2.94l-0.32-2.23
	h-4.1v14.11h4.52v-5.84c0-1.33,0.29-2.51,0.87-3.54c0.58-1.02,1.38-1.53,2.39-1.53c0.58,0.04,0.98,0.24,1.19,0.6
	c0.22,0.35,0.34,0.89,0.39,1.6v8.72h4.52v-5.78c0-1.38,0.3-2.58,0.89-3.6c0.59-1.02,1.42-1.53,2.47-1.53
	c0.56,0.04,0.94,0.24,1.13,0.6c0.19,0.35,0.31,0.89,0.35,1.6v8.72h4.49v-10.59c-0.04-1.27-0.48-2.29-1.31-3.07
	C302.81,172.22,301.7,171.83,300.33,171.83 M271.66,186.65h4.68v-23.76h-4.68V186.65z M251.06,171.86c-1.25,0-2.33,0.26-3.24,0.77
	c-0.92,0.52-1.63,1.23-2.15,2.13v-13.59h-4.42v25.47h4.52v-5.75c0-1.53,0.31-2.78,0.94-3.74c0.62-0.97,1.45-1.45,2.49-1.45
	c1.31,0,2,0.69,2.07,2.07v8.88h4.52v-10.56c-0.02-1.23-0.48-2.24-1.37-3.04C253.51,172.26,252.4,171.86,251.06,171.86 M231.4,186.94
	c1.31,0,2.43-0.23,3.34-0.69c0.92-0.46,1.6-1.07,2.05-1.82c0.45-0.75,0.68-1.58,0.68-2.49c0-1.94-1.11-3.27-3.33-4
	c-0.15-0.04-0.3-0.09-0.44-0.13c-0.14-0.04-0.27-0.09-0.4-0.13c-0.84-0.24-1.46-0.47-1.86-0.69c-0.4-0.23-0.59-0.57-0.56-1.02
	c0-0.3,0.16-0.56,0.48-0.77c0.32-0.22,0.74-0.32,1.26-0.32c0.43,0,0.91,0.11,1.44,0.34c0.53,0.23,1.01,0.51,1.44,0.86l1.71-2.65
	c-0.75-0.54-1.54-0.92-2.36-1.16c-0.82-0.24-1.81-0.36-2.97-0.36c-1.25,0-2.29,0.23-3.13,0.69c-0.84,0.46-1.46,1.06-1.86,1.78
	c-0.4,0.72-0.6,1.46-0.6,2.21c0,0.99,0.3,1.87,0.9,2.63c0.6,0.76,1.52,1.34,2.74,1.73c0.17,0.04,0.51,0.14,1.02,0.29
	c0.5,0.15,0.96,0.34,1.37,0.57c0.41,0.23,0.61,0.55,0.61,0.98c0,0.37-0.18,0.64-0.53,0.82c-0.35,0.18-0.82,0.27-1.4,0.27
	c-1.1,0-2.27-0.58-3.52-1.74l-1.87,2.49c0.67,0.73,1.51,1.3,2.52,1.71C229.15,186.74,230.24,186.94,231.4,186.94 M217.55,167.54
	c0,0.64,0.25,1.18,0.76,1.61c0.5,0.43,1.08,0.65,1.73,0.65c0.62,0,1.18-0.21,1.68-0.65c0.49-0.43,0.74-0.97,0.74-1.61
	c0-0.65-0.25-1.19-0.74-1.63c-0.5-0.44-1.06-0.66-1.68-0.66c-0.65,0-1.22,0.22-1.73,0.66C217.8,166.35,217.55,166.89,217.55,167.54
	 M217.65,186.65h4.52v-14.11h-4.52V186.65z M208.29,171.86c-1.25,0-2.33,0.26-3.24,0.77c-0.92,0.52-1.63,1.24-2.15,2.16l-0.32-2.26
	h-4.1v14.11h4.52v-5.75c0-1.53,0.31-2.78,0.94-3.74c0.62-0.97,1.45-1.45,2.49-1.45c1.31,0,2,0.69,2.07,2.07v8.88H213v-10.56
	c-0.02-1.23-0.48-2.24-1.37-3.04C210.74,172.26,209.62,171.86,208.29,171.86 M189.11,171.86c-1.25,0-2.33,0.26-3.24,0.77
	c-0.92,0.52-1.63,1.24-2.15,2.16l-0.32-2.26h-4.1v14.11h4.52v-5.75c0-1.53,0.31-2.78,0.94-3.74c0.62-0.97,1.45-1.45,2.49-1.45
	c1.31,0,2,0.69,2.07,2.07v8.88h4.52v-10.56c-0.02-1.23-0.48-2.24-1.37-3.04C191.56,172.26,190.44,171.86,189.11,171.86
	 M170.03,167.54c0,0.64,0.25,1.18,0.76,1.61c0.5,0.43,1.08,0.65,1.73,0.65c0.62,0,1.18-0.21,1.68-0.65
	c0.49-0.43,0.74-0.97,0.74-1.61c0-0.65-0.25-1.19-0.74-1.63c-0.5-0.44-1.06-0.66-1.68-0.66c-0.65,0-1.22,0.22-1.73,0.66
	C170.28,166.35,170.03,166.89,170.03,167.54 M170.13,186.65h4.52v-14.11h-4.52V186.65z M151.5,162.89v23.76h4.68v-9.33h8.81v-4.52
	h-8.81v-5.39h10.17v-4.52H151.5z"/>
<path d="M401.79,129.09v6.13h-2.2v3.52h2.2v10.65h4.52v-10.65h3.42v-3.52h-3.42v-6.13H401.79z M389.3,138.13
	c1.46,0,2.42,0.67,2.87,2l-6.2,2.1v-0.29c0-1.16,0.3-2.09,0.9-2.78C387.48,138.48,388.29,138.13,389.3,138.13 M389.66,145.95
	c-1.18,0-2.12-0.4-2.81-1.19l10.33-3.29c-0.39-2.2-1.23-3.89-2.53-5.07c-1.3-1.18-2.97-1.78-4.99-1.78c-1.48,0-2.85,0.34-4.1,1.02
	c-1.25,0.68-2.23,1.6-2.95,2.76c-0.72,1.16-1.08,2.43-1.08,3.81c0,1.48,0.31,2.8,0.94,3.95c0.62,1.15,1.54,2.05,2.76,2.68
	c1.22,0.63,2.66,0.95,4.34,0.95c0.78,0,1.59-0.13,2.45-0.39c0.86-0.26,1.68-0.6,2.45-1.03l-2-3.36
	C391.5,145.63,390.56,145.95,389.66,145.95 M374.55,149.4h5.26l-5.52-8.27l5-3.78l-2.75-2.42l-6.71,4.94v-15.95h-4.52v25.47h4.52
	v-4.94l1.26-0.94L374.55,149.4z M356.5,138.52l-0.35-3.23h-4.07v14.11h4.49v-5.52c0-0.77,0.18-1.53,0.55-2.28
	c0.37-0.74,0.89-1.35,1.58-1.83c0.69-0.47,1.49-0.71,2.39-0.71c0.24,0,0.42,0.01,0.55,0.03l0.23-4.52c-0.41,0-0.97,0.17-1.68,0.5
	c-0.71,0.33-1.41,0.8-2.08,1.4C357.42,137.09,356.89,137.77,356.5,138.52 M340.91,138.13c1.46,0,2.42,0.67,2.87,2l-6.2,2.1v-0.29
	c0-1.16,0.3-2.09,0.9-2.78C339.09,138.48,339.9,138.13,340.91,138.13 M341.26,145.95c-1.18,0-2.12-0.4-2.81-1.19l10.33-3.29
	c-0.39-2.2-1.23-3.89-2.53-5.07c-1.3-1.18-2.97-1.78-4.99-1.78c-1.49,0-2.85,0.34-4.1,1.02c-1.25,0.68-2.23,1.6-2.95,2.76
	c-0.72,1.16-1.08,2.43-1.08,3.81c0,1.48,0.31,2.8,0.94,3.95c0.62,1.15,1.54,2.05,2.76,2.68c1.22,0.63,2.66,0.95,4.34,0.95
	c0.77,0,1.59-0.13,2.45-0.39c0.86-0.26,1.68-0.6,2.45-1.03l-2-3.36C343.1,145.63,342.17,145.95,341.26,145.95 M327.03,135.29
	l-2.9,6.72l-3.29-6.72h-5.36l8.46,14.4h0.13l8.01-14.4H327.03z M307.62,149.69c1.31,0,2.43-0.23,3.34-0.69
	c0.91-0.46,1.6-1.07,2.05-1.82c0.45-0.75,0.68-1.58,0.68-2.49c0-1.94-1.11-3.27-3.32-4c-0.15-0.04-0.3-0.09-0.44-0.13
	c-0.14-0.04-0.27-0.08-0.4-0.13c-0.84-0.24-1.46-0.47-1.86-0.69c-0.4-0.23-0.59-0.56-0.57-1.02c0-0.3,0.16-0.56,0.48-0.77
	c0.32-0.22,0.74-0.32,1.26-0.32c0.43,0,0.91,0.11,1.44,0.34c0.53,0.23,1.01,0.51,1.44,0.86l1.71-2.65
	c-0.75-0.54-1.54-0.92-2.36-1.16c-0.82-0.24-1.81-0.36-2.97-0.36c-1.25,0-2.29,0.23-3.13,0.69c-0.84,0.46-1.46,1.06-1.86,1.78
	c-0.4,0.72-0.6,1.46-0.6,2.21c0,0.99,0.3,1.87,0.9,2.63c0.6,0.76,1.52,1.34,2.74,1.73c0.17,0.04,0.51,0.14,1.02,0.29
	c0.51,0.15,0.96,0.34,1.37,0.57c0.41,0.23,0.61,0.55,0.61,0.98c0,0.37-0.18,0.64-0.53,0.82c-0.35,0.18-0.82,0.27-1.4,0.27
	c-1.1,0-2.27-0.58-3.52-1.74l-1.87,2.49c0.67,0.73,1.51,1.3,2.52,1.71C305.37,149.49,306.46,149.69,307.62,149.69 M293.68,134.61
	c-1.25,0-2.33,0.26-3.24,0.77c-0.92,0.52-1.63,1.24-2.15,2.16l-0.32-2.26h-4.1v14.11h4.52v-5.75c0-1.53,0.31-2.78,0.94-3.74
	c0.62-0.97,1.45-1.45,2.49-1.45c1.31,0,2,0.69,2.07,2.07v8.88h4.52v-10.56c-0.02-1.23-0.48-2.24-1.37-3.04
	C296.13,135.01,295.01,134.61,293.68,134.61 M268.88,142.2c0-1.12,0.32-2.05,0.97-2.79c0.65-0.74,1.46-1.11,2.45-1.11
	c1.03,0,1.87,0.37,2.5,1.1c0.63,0.73,0.95,1.67,0.95,2.81c0,1.14-0.32,2.08-0.95,2.81c-0.64,0.73-1.47,1.1-2.5,1.1
	c-0.99,0-1.81-0.37-2.45-1.11C269.21,144.25,268.88,143.32,268.88,142.2 M264.33,142.17c0,1.57,0.34,2.93,1.02,4.07
	c0.68,1.14,1.63,2.02,2.84,2.63c1.22,0.61,2.61,0.92,4.18,0.92c1.61,0,3.02-0.33,4.21-0.98c1.19-0.66,2.11-1.57,2.76-2.73
	c0.65-1.16,0.97-2.46,0.97-3.91c0-1.44-0.32-2.73-0.97-3.87c-0.65-1.14-1.57-2.04-2.76-2.7c-1.19-0.66-2.58-0.99-4.15-0.99
	c-1.57,0-2.98,0.33-4.21,0.99c-1.24,0.66-2.2,1.55-2.87,2.7C264.67,139.43,264.33,140.73,264.33,142.17 M256.16,130.29
	c0,0.65,0.25,1.18,0.76,1.61c0.5,0.43,1.08,0.65,1.73,0.65c0.62,0,1.18-0.22,1.68-0.65c0.49-0.43,0.74-0.97,0.74-1.61
	c0-0.64-0.25-1.19-0.74-1.63c-0.5-0.44-1.06-0.66-1.68-0.66c-0.65,0-1.22,0.22-1.73,0.66C256.42,129.1,256.16,129.64,256.16,130.29
	 M256.26,149.4h4.52v-14.11h-4.52V149.4z M244.86,129.09v6.13h-2.2v3.52h2.2v10.65h4.52v-10.65h3.42v-3.52h-3.42v-6.13H244.86z
	 M230.95,146.11c-0.67,0-1.29-0.17-1.86-0.52c-0.57-0.34-1.03-0.82-1.37-1.44c-0.34-0.61-0.52-1.29-0.52-2.02
	c0-1.12,0.35-2.05,1.05-2.78c0.7-0.73,1.54-1.1,2.53-1.1c0.86,0,1.61,0.21,2.24,0.61c0.64,0.41,1.08,0.96,1.34,1.65v3.45
	C233.66,145.4,232.52,146.11,230.95,146.11 M234.69,135.29l-0.29,1.45c-0.56-0.69-1.21-1.22-1.94-1.6
	c-0.73-0.38-1.72-0.56-2.97-0.56c-1.21,0-2.33,0.32-3.39,0.97c-1.05,0.65-1.9,1.56-2.53,2.73c-0.64,1.17-0.95,2.53-0.95,4.08
	c0,2.45,0.65,4.31,1.95,5.55c1.3,1.25,3,1.87,5.08,1.87c1.79,0,3.36-0.71,4.71-2.13v1.74h4.52v-14.11H234.69z M215.39,138.52
	l-0.35-3.23h-4.07v14.11h4.49v-5.52c0-0.77,0.18-1.53,0.55-2.28c0.37-0.74,0.89-1.35,1.58-1.83c0.69-0.47,1.48-0.71,2.39-0.71
	c0.24,0,0.42,0.01,0.55,0.03l0.23-4.52c-0.41,0-0.97,0.17-1.68,0.5c-0.71,0.33-1.4,0.8-2.08,1.4
	C216.31,137.09,215.78,137.77,215.39,138.52 M197.89,146.11c-1.1,0-2.02-0.38-2.78-1.15c-0.75-0.76-1.13-1.71-1.13-2.82
	s0.38-2.05,1.13-2.78c0.75-0.73,1.68-1.1,2.78-1.1c0.91,0,1.71,0.21,2.41,0.61c0.7,0.41,1.2,0.96,1.5,1.65v3.45
	C201,145.4,199.7,146.11,197.89,146.11 M202.15,135.29l-0.35,1.1c-0.47-0.54-1.16-0.97-2.07-1.31c-0.9-0.33-1.94-0.5-3.1-0.5
	c-1.23,0-2.4,0.33-3.5,1c-1.11,0.67-2,1.59-2.68,2.78c-0.68,1.18-1.02,2.49-1.02,3.91c0,1.4,0.32,2.67,0.97,3.83
	c0.65,1.15,1.51,2.06,2.6,2.71c1.09,0.65,2.26,0.98,3.54,0.98c1.29,0,2.38-0.23,3.28-0.68c0.89-0.45,1.56-1.04,1.99-1.78v2
	c0,1.01-0.39,1.8-1.16,2.37s-1.73,0.86-2.87,0.86c-0.97,0-1.77-0.17-2.4-0.52c-0.64-0.34-1.28-0.82-1.92-1.42l-2.65,3.1
	c0.73,0.6,1.36,1.08,1.89,1.42c0.53,0.34,1.23,0.66,2.1,0.94c0.87,0.28,1.89,0.42,3.05,0.42c1.53,0,2.94-0.31,4.24-0.92
	c1.3-0.61,2.33-1.46,3.1-2.55s1.15-2.3,1.15-3.63v-14.11H202.15z M181.27,130.29c0,0.65,0.25,1.18,0.76,1.61
	c0.51,0.43,1.08,0.65,1.73,0.65c0.62,0,1.18-0.22,1.68-0.65s0.74-0.97,0.74-1.61c0-0.64-0.25-1.19-0.74-1.63s-1.06-0.66-1.68-0.66
	c-0.65,0-1.22,0.22-1.73,0.66C181.52,129.1,181.27,129.64,181.27,130.29 M181.36,149.4h4.52v-14.11h-4.52V149.4z M175.91,124.67
	l-12.33,17.08l-12.04-17.08h-0.03v24.73h4.52v-10.62l7.46,10.3h0.07l7.75-11.01v11.33h4.68v-24.73H175.91z"/>
<path d="M477.73,104.95c0-1.12,0.32-2.05,0.97-2.79c0.65-0.74,1.46-1.11,2.45-1.11c1.03,0,1.87,0.37,2.5,1.1
	c0.63,0.73,0.95,1.67,0.95,2.81c0,1.14-0.32,2.08-0.95,2.81c-0.64,0.73-1.47,1.1-2.5,1.1c-0.99,0-1.81-0.37-2.45-1.11
	C478.05,107,477.73,106.07,477.73,104.95 M473.17,104.92c0,1.57,0.34,2.93,1.02,4.07c0.68,1.14,1.63,2.02,2.84,2.63
	c1.22,0.61,2.61,0.92,4.18,0.92c1.61,0,3.02-0.33,4.21-0.98c1.19-0.66,2.11-1.57,2.76-2.73c0.65-1.16,0.97-2.46,0.97-3.91
	c0-1.44-0.32-2.73-0.97-3.87c-0.65-1.14-1.57-2.04-2.76-2.7c-1.19-0.66-2.58-0.99-4.15-0.99c-1.57,0-2.98,0.33-4.21,0.99
	c-1.24,0.66-2.2,1.55-2.87,2.7C473.51,102.18,473.17,103.48,473.17,104.92 M462.88,91.84v6.13h-2.2v3.52h2.2v10.65h4.52V101.5h3.42
	v-3.52h-3.42v-6.13H462.88z M451.71,112.44c1.31,0,2.43-0.23,3.34-0.69c0.91-0.46,1.6-1.07,2.05-1.82c0.45-0.75,0.68-1.58,0.68-2.49
	c0-1.94-1.11-3.27-3.33-4c-0.15-0.04-0.3-0.09-0.44-0.13c-0.14-0.04-0.27-0.08-0.4-0.13c-0.84-0.24-1.46-0.47-1.86-0.69
	c-0.4-0.23-0.59-0.56-0.57-1.02c0-0.3,0.16-0.56,0.49-0.77c0.32-0.22,0.74-0.32,1.26-0.32c0.43,0,0.91,0.11,1.44,0.34
	c0.53,0.23,1.01,0.51,1.44,0.86l1.71-2.65c-0.75-0.54-1.54-0.92-2.36-1.16c-0.82-0.24-1.81-0.36-2.97-0.36
	c-1.25,0-2.29,0.23-3.13,0.69c-0.84,0.46-1.46,1.06-1.86,1.78c-0.4,0.72-0.6,1.46-0.6,2.21c0,0.99,0.3,1.87,0.91,2.63
	c0.6,0.76,1.52,1.34,2.74,1.73c0.17,0.04,0.51,0.14,1.02,0.29c0.5,0.15,0.96,0.34,1.37,0.57c0.41,0.23,0.61,0.55,0.61,0.98
	c0,0.37-0.18,0.64-0.53,0.82c-0.35,0.18-0.82,0.27-1.41,0.27c-1.1,0-2.27-0.58-3.52-1.74l-1.87,2.49c0.67,0.73,1.51,1.3,2.52,1.71
	C449.46,112.23,450.54,112.44,451.71,112.44 M434.53,108.86c-0.67,0-1.29-0.17-1.86-0.52c-0.57-0.34-1.03-0.82-1.37-1.44
	c-0.34-0.61-0.52-1.29-0.52-2.02c0-1.12,0.35-2.05,1.05-2.78c0.7-0.73,1.54-1.1,2.53-1.1c0.86,0,1.61,0.21,2.24,0.61
	c0.64,0.41,1.08,0.96,1.34,1.65v3.45C437.24,108.15,436.1,108.86,434.53,108.86 M438.28,98.04l-0.29,1.45
	c-0.56-0.69-1.21-1.22-1.94-1.6c-0.73-0.38-1.72-0.56-2.97-0.56c-1.21,0-2.33,0.32-3.39,0.97c-1.05,0.65-1.9,1.56-2.53,2.73
	c-0.64,1.17-0.95,2.53-0.95,4.08c0,2.45,0.65,4.31,1.95,5.55s3,1.87,5.08,1.87c1.79,0,3.36-0.71,4.71-2.13v1.74h4.52V98.04H438.28z
	 M418.97,101.27l-0.35-3.23h-4.07v14.11h4.49v-5.52c0-0.77,0.18-1.53,0.55-2.28c0.37-0.74,0.89-1.35,1.58-1.83
	c0.69-0.47,1.48-0.71,2.39-0.71c0.24,0,0.42,0.01,0.55,0.03l0.23-4.52c-0.41,0-0.97,0.17-1.68,0.5c-0.71,0.33-1.4,0.8-2.08,1.4
	C419.89,99.84,419.36,100.52,418.97,101.27 M405.28,93.04c0,0.65,0.25,1.18,0.76,1.61c0.5,0.43,1.08,0.65,1.73,0.65
	c0.62,0,1.18-0.22,1.68-0.65c0.5-0.43,0.74-0.97,0.74-1.61c0-0.64-0.25-1.19-0.74-1.63c-0.49-0.44-1.05-0.66-1.68-0.66
	c-0.65,0-1.22,0.22-1.73,0.66C405.54,91.85,405.28,92.39,405.28,93.04 M405.38,112.15h4.52V98.04h-4.52V112.15z M397.7,98.04
	l-2.91,6.72l-3.29-6.72h-5.36l8.46,14.4h0.13l8.01-14.4H397.7z M373.64,104.95c0-1.12,0.32-2.05,0.97-2.79
	c0.65-0.74,1.46-1.11,2.45-1.11c1.03,0,1.87,0.37,2.5,1.1c0.64,0.73,0.95,1.67,0.95,2.81c0,1.14-0.32,2.08-0.95,2.81
	c-0.64,0.73-1.47,1.1-2.5,1.1c-0.99,0-1.81-0.37-2.45-1.11C373.97,107,373.64,106.07,373.64,104.95 M369.09,104.92
	c0,1.57,0.34,2.93,1.02,4.07c0.68,1.14,1.62,2.02,2.84,2.63c1.21,0.61,2.61,0.92,4.18,0.92c1.61,0,3.02-0.33,4.21-0.98
	c1.19-0.66,2.11-1.57,2.76-2.73c0.65-1.16,0.97-2.46,0.97-3.91c0-1.44-0.32-2.73-0.97-3.87c-0.65-1.14-1.57-2.04-2.76-2.7
	c-1.19-0.66-2.58-0.99-4.15-0.99c-1.57,0-2.98,0.33-4.21,0.99c-1.24,0.66-2.2,1.55-2.87,2.7
	C369.43,102.18,369.09,103.48,369.09,104.92 M358.79,91.84v6.13h-2.2v3.52h2.2v10.65h4.52V101.5h3.42v-3.52h-3.42v-6.13H358.79z
	 M346.07,91.84v6.13h-2.2v3.52h2.2v10.65h4.52V101.5h3.42v-3.52h-3.42v-6.13H346.07z M335.58,98.04v5.75c0,1.53-0.3,2.78-0.89,3.74
	c-0.59,0.97-1.38,1.45-2.37,1.45c-1.21,0-1.84-0.69-1.9-2.07v-8.88h-4.52v10.56c0.02,1.23,0.46,2.24,1.32,3.04
	c0.86,0.8,1.94,1.19,3.23,1.19c1.21,0,2.25-0.26,3.15-0.79c0.89-0.53,1.59-1.24,2.08-2.15l0.32,2.26h4.1V98.04H335.58z
	 M316.73,98.04v5.75c0,1.53-0.3,2.78-0.89,3.74c-0.59,0.97-1.38,1.45-2.37,1.45c-1.21,0-1.84-0.69-1.9-2.07v-8.88h-4.52v10.56
	c0.02,1.23,0.46,2.24,1.32,3.04c0.86,0.8,1.94,1.19,3.23,1.19c1.21,0,2.25-0.26,3.15-0.79c0.89-0.53,1.59-1.24,2.08-2.15l0.32,2.26
	h4.1V98.04H316.73z M297.78,97.33c-0.88,0-1.74,0.25-2.57,0.74c-0.83,0.49-1.54,1.16-2.15,2c-0.28-0.9-0.79-1.59-1.53-2.05
	c-0.74-0.46-1.68-0.69-2.82-0.69c-2.26,0-3.96,0.98-5.1,2.94l-0.32-2.23h-4.1v14.11h4.52v-5.84c0-1.33,0.29-2.51,0.87-3.54
	c0.58-1.02,1.38-1.53,2.39-1.53c0.58,0.04,0.98,0.24,1.19,0.6c0.22,0.35,0.34,0.89,0.39,1.6v8.72h4.52v-5.78
	c0-1.38,0.3-2.58,0.89-3.6c0.59-1.02,1.42-1.53,2.47-1.53c0.56,0.04,0.94,0.24,1.13,0.6c0.19,0.35,0.31,0.89,0.35,1.6v8.72h4.49
	v-10.59c-0.04-1.27-0.48-2.29-1.31-3.07C300.26,97.72,299.15,97.33,297.78,97.33 M269.82,97.36c-1.25,0-2.33,0.26-3.24,0.77
	c-0.92,0.52-1.63,1.24-2.15,2.16l-0.32-2.26h-4.1v14.11h4.52v-5.75c0-1.53,0.31-2.78,0.94-3.74c0.62-0.97,1.45-1.45,2.49-1.45
	c1.31,0,2,0.69,2.07,2.07v8.88h4.52v-10.56c-0.02-1.23-0.48-2.24-1.37-3.04C272.27,97.76,271.15,97.36,269.82,97.36 M247.42,108.86
	c-0.67,0-1.29-0.17-1.86-0.52c-0.57-0.34-1.03-0.82-1.37-1.44c-0.34-0.61-0.52-1.29-0.52-2.02c0-1.12,0.35-2.05,1.05-2.78
	c0.7-0.73,1.54-1.1,2.53-1.1c0.86,0,1.61,0.21,2.24,0.61c0.64,0.41,1.08,0.96,1.34,1.65v3.45
	C250.13,108.15,248.99,108.86,247.42,108.86 M251.16,98.04l-0.29,1.45c-0.56-0.69-1.21-1.22-1.94-1.6
	c-0.73-0.38-1.72-0.56-2.97-0.56c-1.21,0-2.33,0.32-3.39,0.97c-1.05,0.65-1.9,1.56-2.53,2.73c-0.64,1.17-0.95,2.53-0.95,4.08
	c0,2.45,0.65,4.31,1.95,5.55c1.3,1.25,3,1.87,5.08,1.87c1.79,0,3.36-0.71,4.71-2.13v1.74h4.52V98.04H251.16z M230.82,97.36
	c-1.25,0-2.33,0.26-3.24,0.77c-0.92,0.52-1.63,1.23-2.15,2.13V86.68h-4.42v25.47h4.52v-5.75c0-1.53,0.31-2.78,0.94-3.74
	c0.62-0.97,1.45-1.45,2.49-1.45c1.31,0,2,0.69,2.07,2.07v8.88h4.52v-10.56c-0.02-1.23-0.48-2.24-1.37-3.04
	C233.27,97.76,232.16,97.36,230.82,97.36 M208.42,108.86c-0.67,0-1.29-0.17-1.86-0.52c-0.57-0.34-1.03-0.82-1.37-1.44
	c-0.34-0.61-0.52-1.29-0.52-2.02c0-1.12,0.35-2.05,1.05-2.78c0.7-0.73,1.54-1.1,2.53-1.1c0.86,0,1.61,0.21,2.24,0.61
	c0.64,0.41,1.08,0.96,1.34,1.65v3.45C211.13,108.15,209.99,108.86,208.42,108.86 M212.16,98.04l-0.29,1.45
	c-0.56-0.69-1.21-1.22-1.94-1.6c-0.73-0.38-1.72-0.56-2.97-0.56c-1.21,0-2.33,0.32-3.39,0.97c-1.05,0.65-1.9,1.56-2.53,2.73
	c-0.64,1.17-0.95,2.53-0.95,4.08c0,2.45,0.65,4.31,1.95,5.55c1.3,1.25,3,1.87,5.08,1.87c1.79,0,3.36-0.71,4.71-2.13v1.74h4.52V98.04
	H212.16z M188.59,108.86c-0.67,0-1.29-0.17-1.86-0.52c-0.57-0.34-1.03-0.82-1.37-1.44c-0.35-0.61-0.52-1.29-0.52-2.02
	c0-1.12,0.35-2.05,1.05-2.78c0.7-0.73,1.54-1.1,2.53-1.1c0.86,0,1.61,0.21,2.24,0.61c0.63,0.41,1.08,0.96,1.34,1.65v3.45
	C191.31,108.15,190.16,108.86,188.59,108.86 M192.34,98.04l-0.29,1.45c-0.56-0.69-1.21-1.22-1.94-1.6
	c-0.73-0.38-1.72-0.56-2.97-0.56c-1.21,0-2.34,0.32-3.39,0.97c-1.06,0.65-1.9,1.56-2.53,2.73c-0.64,1.17-0.95,2.53-0.95,4.08
	c0,2.45,0.65,4.31,1.95,5.55c1.3,1.25,3,1.87,5.08,1.87c1.79,0,3.36-0.71,4.71-2.13v1.74h4.52V98.04H192.34z M175.91,87.42
	l-12.33,17.08l-12.04-17.08h-0.03v24.73h4.52v-10.62l7.46,10.3h0.07l7.75-11.01v11.33h4.68V87.42H175.91z"/>
<rect x="9.04" y="9.25" fill="none" width="566.93" height="184.51"/>
</svg>
