<svg xmlns="http://www.w3.org/2000/svg" xmlns:xlink="http://www.w3.org/1999/xlink" width="1936" height="338" viewBox="0 0 1936 338">
  <defs>
    <path id="a" d="M0 0h272v338H0z"/>
    <path id="c" d="M0 0h703v338H0z"/>
  </defs>
  <g fill="none" fill-rule="evenodd">
    <mask id="b" fill="#fff">
      <use xlink:href="#a"/>
    </mask>
    <path fill="#000" d="M70.92 323.57c-21.3-9.65-38.14-22.75-50.57-39.3C7.94 267.72 1.13 249.4-.05 229.31h83.4c1.56 12.61 7.77 23.05 18.62 31.32 10.84 8.28 24.34 12.41 40.51 12.41 15.76 0 28.1-3.15 36.97-9.46 8.87-6.3 13.3-14.37 13.3-24.22 0-10.64-5.42-18.62-16.26-23.94-10.85-5.32-28.1-11.13-51.75-17.43-24.45-5.91-44.46-12.02-60.03-18.33a104.17 104.17 0 0 1-40.22-28.95c-11.23-13-16.85-30.54-16.85-52.6a84.86 84.86 0 0 1 15.67-49.65C33.75 33.49 48.74 21.67 68.26 13c19.52-8.66 42.48-13 68.9-13 39.04 0 70.18 9.75 93.44 29.25 23.27 19.5 36.08 45.8 38.44 78.9H189.8c-1.19-13-6.61-23.34-16.27-31.03-9.67-7.68-22.57-11.52-38.73-11.52-15 0-26.53 2.76-34.6 8.28-8.1 5.52-12.13 13.2-12.13 23.04 0 11.04 5.52 19.41 16.56 25.12 11.04 5.72 28.18 11.52 51.45 17.43 23.66 5.91 43.18 12.03 58.56 18.33 15.37 6.3 28.68 16.05 39.92 29.25 11.23 13.2 17.05 30.64 17.44 52.3 0 18.92-5.23 35.86-15.67 50.83-10.45 14.98-25.43 26.7-44.95 35.17-19.52 8.46-42.28 12.7-68.3 12.7-26.82 0-50.87-4.83-72.16-14.48" mask="url(#b)"/>
    <path fill="#000" d="M332 332h83V5h-83zM755.95 36.92C779.97 61.54 792 95.9 792 140.01V332h-82.73V151.23c0-26-6.5-45.97-19.5-59.96-13-13.97-30.72-20.97-53.18-20.97-22.85 0-40.87 7-54.07 20.97-13.2 13.99-19.8 33.97-19.8 59.96V332H480V4.73h82.73v40.76c11.02-14.18 25.1-25.3 42.25-33.38C622.12 4.04 640.92 0 661.4 0c39 0 70.5 12.31 94.54 36.92M1168 5v327.86h-83.33v-41.43c-10.63 14.2-24.51 25.35-41.65 33.44-17.14 8.08-35.75 12.13-55.84 12.13-25.61 0-48.26-5.42-67.95-16.27-19.7-10.85-35.16-26.83-46.39-47.94-11.23-21.1-16.84-46.26-16.84-75.46V5h82.73v180.5c0 26.04 6.5 46.07 19.5 60.07s30.72 21 53.18 21c22.84 0 40.77-7 53.77-21s19.5-34.03 19.5-60.07V5H1168"/>
    <g transform="translate(1233)">
      <mask id="d" fill="#fff">
        <use xlink:href="#c"/>
      </mask>
      <path fill="#000" d="M275.95 37.53c24.02 24.63 36.04 59 36.04 103.13v192.07h-82.72V151.9c0-26-6.5-46-19.5-59.99-13-13.98-30.73-20.98-53.18-20.98-22.85 0-40.88 7-54.07 20.98-13.2 13.99-19.8 33.98-19.8 59.99v180.84H0V5.32h82.72V46.1c11.03-14.19 25.12-25.31 42.26-33.4C142.1 4.65 160.92.6 181.4.6c39 0 70.51 12.32 94.55 36.94m331.91 79.77c-7.88-14.38-18.51-25.41-31.9-33.1a85.27 85.27 0 0 0-43.14-11.52 83.8 83.8 0 0 0-42.54 11.23c-13 7.49-23.54 18.42-31.62 32.8-8.08 14.39-12.12 31.43-12.12 51.12 0 19.71 4.04 36.94 12.12 51.72 8.08 14.77 18.7 26.1 31.9 33.98 13.2 7.89 27.28 11.82 42.26 11.82a85.27 85.27 0 0 0 43.13-11.53c13.4-7.68 24.03-18.7 31.91-33.1 7.87-14.37 11.82-31.61 11.82-51.7 0-20.1-3.95-37.33-11.82-51.72ZM381.84 79.8c13.2-25.61 31.12-45.31 53.78-59.1C458.27 6.89 483.57 0 511.55 0c24.41 0 45.8 4.93 64.11 14.78 18.32 9.85 32.98 22.26 44.02 37.23V5.3H703v327.42h-83.32v-47.87c-10.64 15.37-25.32 28.07-44.02 38.12-18.72 10.05-40.28 15.07-64.7 15.07-27.58 0-52.7-7.09-75.34-21.28-22.66-14.18-40.58-34.17-53.78-59.98-13.2-25.8-19.79-55.45-19.79-88.95 0-33.1 6.6-62.44 19.8-88.05Z" mask="url(#d)"/>
    </g>
  </g>
</svg>
