<svg width="79px" height="26px" viewBox="0 0 79 26" version="1.1" xmlns="http://www.w3.org/2000/svg" xmlns:xlink="http://www.w3.org/1999/xlink">
    <defs></defs>
    <g id="Page-1" stroke="none" stroke-width="1" fill="none" fill-rule="evenodd">
        <g id="Työnhaku-&amp;-Ura---Hae-työpaikkaa" transform="translate(-121.000000, -47.000000)" fill-rule="nonzero">
            <g id="staffpoint_logo" transform="translate(121.000000, 47.000000)">
                <path d="M33.4704305,11.4489232 C32.6462073,12.266629 32.3125378,13.5542728 32.3125378,14.8419165 L32.3125378,15.271941 L28.8186271,15.271941 L28.8186271,14.924173 C28.8186271,13.6771369 29.1327275,12.7164366 30.231913,12.7164366 C30.5652508,12.7164366 30.8796828,12.7983461 31.1151752,12.9208631 L31.5075519,11.0404173 C31.2133523,10.8970758 30.7028977,10.7540814 30.1927748,10.7540814 C28.9758431,10.7540814 28.0922492,11.142457 27.5035183,11.7762137 C26.7380023,12.5939196 26.4239019,13.7791766 26.4239019,15.0671674 L26.4239019,15.271941 L25.1283622,15.271941 L25.1283622,17.1523868 L26.4239019,17.1523868 L26.4239019,25.2267115 L28.8381962,25.2267115 L28.8381962,17.1523868 L32.3125378,17.1523868 L32.3125378,25.2267115 L34.7268321,25.2267115 L34.7268321,17.1523868 L36.8074569,17.1523868 L36.8074569,15.271941 L34.7069313,15.271941 L34.7069313,14.7603542 C34.7069313,13.5337954 35.1192088,12.4915328 36.3165714,12.4915328 C36.767987,12.4915328 37.0820874,12.5730952 37.3371489,12.6754819 L37.513934,10.7336041 C37.1407947,10.611087 36.610771,10.4882229 35.9825702,10.4882229 C35.1391095,10.4878758 34.1769076,10.7537344 33.4704305,11.4489232" id="Fill-1" fill="#029A4E"></path>
                <path d="M5.27801412,17.2134718 C3.51148969,16.4981527 2.74597366,16.0073903 2.74597366,14.9443033 C2.74597366,14.1269445 3.39374351,13.2884142 4.92477557,13.2884142 C6.16127634,13.2884142 7.0840084,13.6771369 7.57456221,13.9429954 L8.14372405,11.9192081 C7.45648435,11.5513099 6.41633779,11.2243664 4.98348282,11.2243664 C2.09820382,11.2243664 0.292209542,12.9212102 0.292209542,15.1900316 C0.292209542,17.1728641 1.68592634,18.3789455 3.88429733,19.1963043 C5.55264466,19.8300611 6.21998359,20.4436875 6.21998359,21.4862972 C6.21998359,22.6101221 5.35629046,23.366743 3.8252584,23.366743 C2.58875763,23.366743 1.39139504,22.9578901 0.625879008,22.4876051 L0.0762862595,24.5724774 C0.802332443,25.0427623 2.25508817,25.4516153 3.66837405,25.4516153 C7.06410763,25.4516153 8.67341603,23.5298677 8.67341603,21.3016539 C8.67374771,19.3188214 7.57456221,18.1127399 5.27801412,17.2134718" id="Fill-2" fill="#029A4E"></path>
                <path d="M12.8336706,12.7160896 L10.4585145,13.4112784 L10.4585145,15.271941 L9.10426756,15.271941 L9.10426756,17.1523868 L10.4585145,17.1523868 L10.4585145,21.8330239 C10.4585145,23.1414921 10.6940069,24.0612377 11.2240305,24.6339094 C11.6757779,25.144455 12.401824,25.4512682 13.3046553,25.4512682 C14.0506023,25.4512682 14.6983721,25.3284041 15.0516107,25.1854097 L15.0124725,23.2837924 C14.7375103,23.3657018 14.5020179,23.3861791 14.0701714,23.3861791 C13.147771,23.3861791 12.8336706,22.7725527 12.8336706,21.546341 L12.8336706,17.1523868 L15.1302187,17.1523868 L15.1302187,15.271941 L12.8336706,15.271941 L12.8336706,12.7160896" id="Fill-3" fill="#029A4E"></path>
                <path d="M24.0998244,19.2577364 C24.0998244,17.0701303 23.2165622,15.0466901 20.1544981,15.0466901 C18.6430351,15.0466901 17.4065344,15.4760204 16.6997256,15.9254809 L17.1707103,17.5612397 C17.8184802,17.1315623 18.7999195,16.8250962 19.7418889,16.8250962 C21.4298053,16.8250962 21.6851985,17.9083135 21.6851985,18.5625476 L21.6851985,18.7267135 C18.1521496,18.7062361 16.0124859,19.9935328 16.0124859,22.4876051 C16.0124859,24.0004997 17.0921023,25.4519623 19.0155111,25.4519623 C20.2719126,25.4519623 21.272921,24.900115 21.8420828,24.1233639 L21.9007901,24.1233639 L22.0772435,25.2270585 L24.2560454,25.2270585 C24.1382992,24.6134321 24.0988294,23.7349883 24.0988294,22.835373 L24.0988294,19.2577364 L24.0998244,19.2577364 Z M21.7445691,21.7313313 C21.7445691,21.9149333 21.7445691,22.0988824 21.6855302,22.2831786 C21.4500378,22.9984977 20.7631298,23.6523847 19.7816905,23.6523847 C19.0158427,23.6523847 18.4075427,23.2029242 18.4075427,22.2213995 C18.4075427,20.709199 20.0367519,20.3409537 21.7445691,20.361431 L21.7445691,21.7313313 Z" id="Fill-4" fill="#029A4E"></path>
                <path d="M68.3883099,15.0466901 C66.7979073,15.0466901 65.7577607,15.986913 65.3262458,16.7640112 L65.2672069,16.7640112 L65.1494607,15.271941 L63.0492668,15.271941 C63.0887366,16.1302545 63.1275431,17.0906076 63.1275431,18.2356041 L63.1275431,25.2267115 L65.5418374,25.2267115 L65.5418374,19.359429 C65.5418374,19.0734402 65.5813073,18.766974 65.6595836,18.5622005 C65.9149767,17.8062738 66.581984,17.0906076 67.5441859,17.0906076 C68.8592947,17.0906076 69.3694176,18.1745191 69.3694176,19.6048102 L69.3694176,25.2263644 L71.7840435,25.2263644 L71.7840435,19.3188214 C71.7840435,16.1708621 70.0563256,15.0466901 68.3883099,15.0466901" id="Fill-5" fill="#029A4E"></path>
                <path d="M78.8309038,17.1523868 L78.8309038,15.271941 L76.5343557,15.271941 L76.5343557,12.7160896 L74.1595313,13.4112784 L74.1595313,15.271941 L72.8049527,15.271941 L72.8049527,17.1523868 L74.1595313,17.1523868 L74.1595313,21.8330239 C74.1595313,23.1414921 74.394692,24.0612377 74.9250473,24.6339094 C75.3761313,25.144455 76.1025092,25.4512682 77.0053405,25.4512682 C77.7512874,25.4512682 78.3990573,25.3284041 78.7526275,25.1854097 L78.7131576,23.2837924 C78.4385271,23.3657018 78.2030347,23.3861791 77.7711882,23.3861791 C76.8487878,23.3861791 76.5343557,22.7725527 76.5343557,21.546341 L76.5343557,17.1523868 L78.8309038,17.1523868" id="Fill-6" fill="#029A4E"></path>
                <path d="M46.543242,12.4710555 C45.6994496,11.734912 44.423479,11.3465364 42.6569546,11.3465364 C41.0473145,11.3465364 39.8499519,11.4694005 38.9666897,11.6328723 L38.9666897,25.2267115 L41.3614149,25.2267115 L41.3614149,20.0143573 C41.6950844,20.0955725 42.0874611,20.1160499 42.5392084,20.1160499 C44.2466939,20.1160499 45.7385878,19.6259817 46.7200271,18.6239796 C47.4460733,17.8878361 47.8387817,16.8247491 47.8387817,15.516628 C47.8387817,14.2289842 47.3283271,13.1454198 46.543242,12.4710555 Z M42.5392084,18.1536947 C42.0486546,18.1536947 41.6755153,18.1332173 41.3614149,18.0308305 L41.3614149,13.4112784 C41.616808,13.3498463 42.0874611,13.2884142 42.7551317,13.2884142 C44.423479,13.2884142 45.4440565,14.0859898 45.4440565,15.6190148 C45.4443882,17.2134718 44.3452027,18.1536947 42.5392084,18.1536947 Z" id="Fill-7" fill="#029A4E"></path>
                <path d="M52.2550927,15.0466901 C49.3698137,15.0466901 47.308758,17.05 47.308758,20.3208234 C47.308758,23.5298677 49.4092836,25.4516153 52.0982084,25.4516153 C54.5320718,25.4516153 57.005405,23.8165506 57.005405,20.1573517 C57.005405,17.1312153 55.1015653,15.0466901 52.2550927,15.0466901 Z M52.1768164,23.6322545 C50.7243924,23.6322545 49.801992,22.1807919 49.801992,20.2590443 C49.801992,18.6035023 50.4885683,16.866398 52.1963855,16.866398 C53.8454954,16.866398 54.5128344,18.6649344 54.5128344,20.2184366 C54.5128344,22.2418768 53.5506324,23.6322545 52.1768164,23.6322545 Z" id="Fill-8" fill="#029A4E"></path>
                <polygon id="Fill-9" fill="#029A4E" points="58.5380954 15.271941 60.9523897 15.271941 60.9523897 25.2267115 58.5380954 25.2267115"></polygon>
                <path d="M65.9809809,6.87206107 C65.9809809,10.4757282 63.1892355,13.3970483 59.7450767,13.3970483 C56.3012496,13.3970483 53.5098359,10.4757282 53.5098359,6.87206107 C53.5098359,3.26839389 56.3012496,0.347073791 59.7450767,0.347073791 C63.1892355,0.347073791 65.9809809,3.26839389 65.9809809,6.87206107" id="Fill-10" fill="#F5821F"></path>
                <path d="M70.6069134,3.98891908 C70.6069134,5.19083562 69.6788744,6.16541883 68.5339172,6.16541883 C67.3889599,6.16541883 66.460921,5.1911827 66.460921,3.98891908 C66.460921,2.78665547 67.3889599,1.81241934 68.5339172,1.81241934 C69.6788744,1.81241934 70.6069134,2.78665547 70.6069134,3.98891908" id="Fill-11" fill="#F5821F"></path>
            </g>
        </g>
    </g>
</svg>
