<svg xmlns="http://www.w3.org/2000/svg" viewBox="0 0 261 78" width="261" height="78">
	<style>
		tspan { white-space:pre }
		.shp0 { fill: #2daae1 } 
		.shp1 { fill: none } 
		.shp2 { fill: #003479 } 
		.shp3 { fill: #ffffff } 
	</style>
	<g id="g82">
		<path id="path4" class="shp0" d="M121.74 44.38L121.74 44.38C121.92 44.26 121.92 44.27 121.74 44.38Z" />
		<path id="path6" class="shp1" d="M121.88 44.29C121.84 44.31 121.81 44.34 121.77 44.36C121.76 44.37 121.75 44.38 121.73 44.38" />
		<path id="path8" class="shp0" d="M121.74 44.38L121.74 44.38C121.92 44.26 121.92 44.27 121.74 44.38Z" />
		<path id="path10" class="shp1" d="M121.88 44.29C121.84 44.31 121.81 44.34 121.77 44.36C121.76 44.37 121.75 44.38 121.73 44.38" />
		<path id="rect12" class="shp1" d="M-55.43 -38.98L310.43 -38.98L310.43 115.07L-55.43 115.07L-55.43 -38.98Z" />
		<path id="rect14" class="shp2" d="M-56.32 -40.12L312.33 -40.12L312.33 116.22L-56.32 116.22L-56.32 -40.12Z" />
		<g id="g50">
			<path id="path16" class="shp3" d="M178.25 21.1C178.65 22.15 179.69 22.33 180.39 21.55C183.7 17.88 185.16 14.58 187.42 10.51C188.3 8.93 188.39 8.72 189.35 7.19C189.74 6.57 190.84 4.94 191.45 4.49C192.37 3.8 193.75 3.24 194.84 3.17C195.85 3.11 196.97 2.7 197.62 3.86C198.62 5.61 194.73 9.87 193.78 11.59C189.24 19.71 185.13 27.52 180.03 35.3C179.18 36.59 178.18 38.92 177.7 40.38C177.5 40.99 177.21 41.57 176.78 42.07C175.51 43.56 173.2 43.25 172.45 41.47C171.74 39.77 171.8 38.49 172.82 36.49C176.71 28.86 175.79 29.03 175.03 25.77C173.95 21.11 173.56 18.34 172.31 13.72C171.51 10.78 171.24 9.38 171.31 7.93C171.39 6.25 173.28 4.57 174.21 4.74C175.35 4.96 175.83 5.96 176.19 7.61C177 11.28 176.53 11.59 177.29 16.3C177.4 16.94 177.87 20.1 178.25 21.1L178.25 21.1Z" />
			<g id="g22">
				<path id="path18" class="shp3" d="M209.15 25.95C209.56 25.65 209.98 25.34 210.38 25.03C210.2 25.15 209.73 25.51 209.15 25.95ZM209.15 25.95C208.96 26.09 208.77 26.24 208.57 26.38C208.78 26.23 208.97 26.09 209.15 25.95Z" />
				<path id="path20" fill-rule="evenodd" class="shp3" d="M258.75 17.94C258.97 18.68 258.63 18.93 258.1 19.15C255.31 20.34 253.27 21.42 250.68 23.01C245.69 26.07 243.35 31.48 241.52 36.47C240.78 38.48 240.7 40.3 239.52 42.05C238.82 43.09 236.29 43.18 235.2 42.32C234.85 42.05 234.68 41.2 234.89 40.45C235.14 39.59 235.43 39 235.71 38.14C235.78 37.92 236.74 35.46 236.52 35.3C236.21 35.08 234.18 37.51 234.02 37.69C233.23 38.56 232.65 39.41 231.73 40.16C228.91 42.47 226.89 41.94 226.21 38.38C226.16 38.09 226.24 37.52 226.01 37.34C225.77 37.14 225.3 37.54 225.07 37.75C224.23 38.53 223.8 39.33 222.91 40.14C221.74 41.2 220.69 42.04 219.28 42.79C215.89 44.6 213.48 43.68 210.68 41.74C209.32 40.8 208.79 38.43 209.08 36.84C209.45 34.79 210.73 30.59 211.4 28.48C211.56 27.97 211.1 27.62 210.57 27.66C209.83 27.71 208.96 28.14 208.14 28.53L208.13 28.55C206.44 29.39 204.1 31.72 203.56 33.21C202.81 35.31 201.54 37.96 200.31 39.85C199.23 41.49 197.83 42.7 195.81 43.13C193.94 43.52 192.22 43.16 190.8 42.01C188.43 40.08 187.05 37.71 187.72 34.49C188.94 28.5 191.57 23.31 196.62 19.48C197.01 19.19 197.39 18.9 197.8 18.65C199.95 17.32 202.04 17.83 204.01 19.39C206.05 21.02 206.61 23.41 205.65 26.43C205.58 26.64 205.4 27.53 205.32 27.9C205.3 28 205.33 28.11 205.43 28.15C205.66 28.27 206.35 27.92 207.14 27.39C207.35 27.26 207.56 27.1 207.78 26.95C208.05 26.77 208.32 26.58 208.58 26.38C209.2 25.94 209.8 25.48 210.39 25.03C210.4 25.02 210.42 25.01 210.43 25C211.47 24.21 212.5 23.44 213.57 22.78C213.97 22.52 214.38 22.28 214.81 22.11C217.1 21.24 219.41 21.64 218.95 24.04C218.53 26.22 217.69 28.36 216.83 30.63C216.28 32.1 215.59 34.17 215.44 35.73C215.39 36.34 215.32 37.87 216.54 38.35C218.35 39.07 219.07 37.91 219.54 37.29C222.36 33.59 226.5 22.48 227.02 21.84C228.19 20.39 229.48 20.08 230.95 20.84C232.73 21.77 233.49 23.12 232.9 24.88C231.96 27.66 231.78 27.89 230.75 30.64C230.53 31.23 229.17 34.93 229.62 35.76C230.74 37.8 232.86 35.82 233.6 35.25C235.82 33.55 236.8 31.03 237.9 28.52C238.86 26.33 239.26 23.92 239.6 21.55C239.82 19.95 239.54 19.03 240.57 18.01C241.85 16.74 243.51 16.56 244.68 17.38C245.51 17.96 244.83 19 244.63 20.01C244.49 20.72 244.07 21.62 244.21 22.71C244.29 23.35 245.09 23.64 245.57 23.21C246.01 22.83 247.27 21.7 247.66 21.43C249.09 20.4 249.52 20.08 250.97 19.09C252.94 17.76 254.59 17.11 256.97 17.14C257.69 17.15 258.56 17.28 258.75 17.94ZM201.17 24.95C200.41 20.75 198.29 23.57 198.29 23.57C195.26 26.58 192.67 32.86 192.11 34.89C190.67 40.09 195.92 38.46 196.55 37.34C200.13 30.99 201.52 26.84 201.17 24.95Z" />
			</g>
			<path id="path24" class="shp3" d="M140.78 14.22C137.58 14.3 137.23 9.36 139.94 8.07C142.9 6.66 144.21 7.84 144.24 10.31C144.27 12.41 143.73 13.77 140.78 14.22Z" />
			<path id="path26" class="shp3" d="M153.81 10.18C150.61 10.26 150.26 5.32 152.97 4.03C155.93 2.62 157.24 3.8 157.27 6.27C157.3 8.36 156.75 9.73 153.81 10.18L153.81 10.18Z" />
			<g id="g34">
				<path id="path28" class="shp3" d="" />
				<g id="g32">
					<path id="path30" class="shp3" d="M161.86 11.4C161.86 11.78 161.77 12.16 161.69 12.52C160.79 17.06 159.56 21.52 157.76 25.78C156.86 27.91 155.78 29.97 154.47 31.88C153.8 32.85 153.01 33.68 152.24 34.54C151.48 35.42 150.55 36.15 149.59 36.8C147.65 38.06 145.26 38.86 142.91 38.46C140.56 38.1 138.49 36.75 136.85 35.11C135.21 33.45 133.85 31.54 132.71 29.53C132.14 28.52 131.59 27.5 131.1 26.44L130.38 24.87C130.13 24.37 129.9 23.73 129.91 23.12C129.9 22.5 130.02 21.89 130.33 21.31C130.67 20.74 131.19 20.4 131.62 20.05C132.04 19.69 132.54 19.27 133.14 19.07C133.73 18.85 134.42 18.86 135.01 19.08C135.6 19.3 136.14 19.69 136.5 20.22C136.86 20.76 137.02 21.38 137.07 21.99C137.09 22.31 137.07 22.61 137.02 22.92C136.98 23.23 136.84 23.54 136.85 23.72C136.86 24.22 137.01 24.79 137.15 25.33C137.75 27.54 138.63 29.66 140.3 31.21C141.09 32.03 141.96 32.74 143 33.1C144.03 33.47 145.16 33.5 146.24 33.26C148.41 32.75 150.33 31.39 151.82 29.68C153.34 27.98 154.62 26.06 155.66 24.02C156.74 21.99 157.49 19.82 158.21 17.62C158.92 15.42 159.54 13.21 160.13 10.97C160.15 10.93 160.15 10.92 160.16 10.9L160.18 10.83C160.2 10.79 160.21 10.76 160.25 10.71C160.25 10.71 160.24 10.71 160.25 10.7L160.26 10.68L160.26 10.67C160.43 10.44 160.67 10.19 161 10.17C161.34 10.17 161.57 10.42 161.72 10.68C161.78 10.78 161.79 10.86 161.83 10.96C161.85 11.14 161.86 11.27 161.86 11.4L161.86 11.4Z" />
				</g>
			</g>
			<g id="g48">
				<path id="path36" class="shp3" d="M130.39 46.38L150.72 46.38L150.72 51.62L138 51.62L138 55.52L149.81 55.52L149.81 60.53L138 60.53L138 65.37L151.1 65.37L151.1 70.93L130.4 70.93L130.4 46.38L130.39 46.38Z" />
				<path id="path38" class="shp3" d="M173.4 70.93L167.04 70.93L167.04 68.05C166.09 69.23 165.13 70.08 164.17 70.58C163.2 71.08 162.02 71.33 160.61 71.33C158.73 71.33 157.26 70.77 156.2 69.65C155.13 68.53 154.6 66.8 154.6 64.47L154.6 53.15L161.45 53.15L161.45 62.93C161.45 64.05 161.66 64.84 162.07 65.31C162.48 65.78 163.06 66.01 163.81 66.01C164.62 66.01 165.29 65.7 165.81 65.07C166.33 64.44 166.59 63.32 166.59 61.7L166.59 53.14L173.41 53.14L173.41 70.93L173.4 70.93Z" />
				<path id="path40" class="shp3" d="M177.53 53.15L183.91 53.15L183.91 56.06C184.52 54.8 185.16 53.93 185.81 53.46C186.46 52.99 187.27 52.75 188.23 52.75C189.23 52.75 190.33 53.06 191.53 53.69L189.42 58.55C188.62 58.22 187.98 58.05 187.51 58.05C186.62 58.05 185.92 58.42 185.43 59.16C184.73 60.2 184.38 62.14 184.38 64.99L184.38 70.95L177.53 70.95L177.53 53.15Z" />
				<path id="path42" fill-rule="evenodd" class="shp3" d="M191.75 62.09C191.75 59.38 192.66 57.14 194.5 55.38C196.33 53.62 198.8 52.74 201.92 52.74C205.48 52.74 208.17 53.77 209.99 55.84C211.45 57.5 212.18 59.55 212.18 61.99C212.18 64.73 211.27 66.97 209.46 68.71C207.65 70.46 205.14 71.33 201.93 71.33C199.07 71.33 196.76 70.6 195 69.15C192.83 67.36 191.75 65.01 191.75 62.09ZM199.54 65.59C200.18 66.35 200.99 66.73 201.96 66.73C202.94 66.73 203.75 66.36 204.38 65.61C205.01 64.86 205.33 63.66 205.33 62.01C205.33 60.47 205.01 59.32 204.38 58.57C203.74 57.82 202.96 57.44 202.02 57.44C201.03 57.44 200.21 57.82 199.56 58.59C198.9 59.35 198.58 60.51 198.58 62.07C198.58 63.66 198.9 64.83 199.54 65.59Z" />
				<path id="path44" fill-rule="evenodd" class="shp3" d="M215.43 77.7L215.43 53.15L221.81 53.15L221.81 55.78C222.69 54.67 223.5 53.93 224.24 53.54C225.23 53.02 226.33 52.75 227.54 52.75C229.92 52.75 231.76 53.66 233.06 55.48C234.36 57.3 235.01 59.55 235.01 62.23C235.01 65.19 234.3 67.45 232.88 69C231.46 70.56 229.67 71.34 227.5 71.34C226.45 71.34 225.49 71.16 224.63 70.8C223.77 70.44 222.99 69.91 222.31 69.21L222.31 77.7L215.43 77.7ZM223.15 65.22C223.74 65.9 224.49 66.24 225.39 66.24C226.18 66.24 226.85 65.91 227.38 65.26C227.92 64.61 228.18 63.5 228.18 61.94C228.18 60.5 227.9 59.44 227.34 58.77C226.78 58.09 226.1 57.76 225.3 57.76C224.43 57.76 223.7 58.1 223.12 58.78C222.55 59.46 222.26 60.56 222.26 62.09C222.26 63.5 222.56 64.54 223.15 65.22Z" />
				<path id="path46" fill-rule="evenodd" class="shp3" d="M244.28 63.73C244.4 64.82 244.7 65.64 245.17 66.18C245.83 66.95 246.69 67.34 247.75 67.34C248.42 67.34 249.06 67.17 249.66 66.84C250.03 66.63 250.42 66.25 250.85 65.72L257.57 66.34C256.54 68.13 255.3 69.41 253.85 70.18C252.4 70.96 250.32 71.34 247.6 71.34C245.24 71.34 243.39 71.01 242.04 70.34C240.69 69.68 239.57 68.62 238.68 67.17C237.79 65.72 237.35 64.02 237.35 62.07C237.35 59.29 238.24 57.04 240.02 55.32C241.8 53.6 244.26 52.74 247.4 52.74C249.95 52.74 251.96 53.13 253.43 53.9C254.9 54.67 256.03 55.79 256.8 57.25C257.57 58.71 257.96 60.62 257.96 62.96L257.96 63.73L244.28 63.73ZM251.01 60.47C250.88 59.15 250.52 58.21 249.95 57.64C249.37 57.07 248.62 56.79 247.68 56.79C246.6 56.79 245.73 57.22 245.08 58.08C244.67 58.62 244.4 59.41 244.29 60.47L251.01 60.47Z" />
			</g>
		</g>
		<g id="g54">
			<path id="path52" fill-rule="evenodd" class="shp3" d="M106 1.98L106 72.12L1.8 72.12L1.8 1.98L106 1.98ZM104 3.98L3.8 3.98L3.8 70.12L104 70.12L104 3.98Z" />
		</g>
		<g id="g80">
			<path id="polygon56" class="shp3" d="M52.54 15.28L51.72 17.82L53.88 16.25L56.03 17.82L55.21 15.28L57.4 13.71L54.7 13.71L53.88 11.13L53.05 13.71L50.35 13.71L52.54 15.28Z" />
			<path id="polygon58" class="shp3" d="M41.38 18.28L40.56 20.82L42.72 19.25L44.87 20.82L44.05 18.28L46.24 16.7L43.54 16.7L42.72 14.12L41.89 16.71L39.19 16.7L41.38 18.28Z" />
			<path id="polygon60" class="shp3" d="M35.38 24.89L34.55 22.31L33.72 24.89L31.03 24.89L33.21 26.46L32.39 29.01L34.55 27.43L36.71 29.01L35.89 26.46L38.08 24.89L35.38 24.89Z" />
			<path id="polygon62" class="shp3" d="M29.4 40.15L31.56 38.58L33.71 40.15L32.89 37.61L35.08 36.03L32.38 36.03L31.56 33.46L30.73 36.04L28.03 36.03L30.22 37.61L29.4 40.15Z" />
			<path id="polygon64" class="shp3" d="M38.08 47.22L35.38 47.22L34.55 44.64L33.72 47.22L31.03 47.22L33.21 48.79L32.39 51.33L34.55 49.76L36.71 51.33L35.89 48.79L38.08 47.22Z" />
			<path id="polygon66" class="shp3" d="M46.26 55.4L43.56 55.4L42.73 52.82L41.91 55.4L39.21 55.4L41.4 56.97L40.58 59.52L42.73 57.94L44.89 59.52L44.07 56.97L46.26 55.4Z" />
			<path id="polygon68" class="shp3" d="M57.41 58.36L54.71 58.36L53.88 55.78L53.05 58.36L50.35 58.36L52.54 59.94L51.72 62.48L53.88 60.91L56.04 62.48L55.22 59.94L57.41 58.36Z" />
			<path id="polygon70" class="shp3" d="M68.55 55.4L65.85 55.4L65.03 52.82L64.2 55.4L61.5 55.4L63.69 56.97L62.87 59.52L65.03 57.94L67.18 59.52L66.36 56.97L68.55 55.4Z" />
			<path id="polygon72" class="shp3" d="M76.73 47.22L74.04 47.22L73.21 44.64L72.38 47.22L69.68 47.22L71.87 48.79L71.05 51.33L73.21 49.76L75.37 51.33L74.54 48.79L76.73 47.22Z" />
			<path id="polygon74" class="shp3" d="M77.51 37.58L79.7 36L77 36L76.17 33.42L75.35 36.01L72.65 36L74.84 37.58L74.02 40.12L76.17 38.55L78.33 40.12L77.51 37.58Z" />
			<path id="polygon76" class="shp3" d="M71.87 26.43L71.05 28.97L73.21 27.4L75.37 28.97L74.54 26.43L76.73 24.86L74.04 24.86L73.21 22.28L72.38 24.86L69.68 24.86L71.87 26.43Z" />
			<path id="polygon78" class="shp3" d="M65.88 16.7L65.06 14.13L64.23 16.71L61.53 16.7L63.72 18.28L62.9 20.83L65.06 19.25L67.22 20.83L66.4 18.28L68.59 16.7L65.88 16.7Z" />
		</g>
	</g>
</svg>